<?xml version="1.0" encoding="UTF-8" standalone="no"?>
<!-- Created with Inkscape (http://www.inkscape.org/) -->

<svg
   xmlns:dc="http://purl.org/dc/elements/1.1/"
   xmlns:cc="http://creativecommons.org/ns#"
   xmlns:rdf="http://www.w3.org/1999/02/22-rdf-syntax-ns#"
   xmlns:svg="http://www.w3.org/2000/svg"
   xmlns="http://www.w3.org/2000/svg"
   xmlns:sodipodi="http://sodipodi.sourceforge.net/DTD/sodipodi-0.dtd"
   xmlns:inkscape="http://www.inkscape.org/namespaces/inkscape"
   version="1.1"
   id="svg2"
   xml:space="preserve"
   width="491.54666"
   height="200"
   viewBox="0 0 491.54666 200"
   sodipodi:docname="danube cloud logo _pycon.svg"
   inkscape:version="0.92.0 r"><metadata
     id="metadata8"><rdf:RDF><cc:Work
         rdf:about=""><dc:format>image/svg+xml</dc:format><dc:type
           rdf:resource="http://purl.org/dc/dcmitype/StillImage" /><dc:title></dc:title></cc:Work></rdf:RDF></metadata><defs
     id="defs6" /><sodipodi:namedview
     pagecolor="#ffffff"
     bordercolor="#666666"
     borderopacity="1"
     objecttolerance="10"
     gridtolerance="10"
     guidetolerance="10"
     inkscape:pageopacity="0"
     inkscape:pageshadow="2"
     inkscape:window-width="1920"
     inkscape:window-height="983"
     id="namedview4"
     showgrid="false"
     inkscape:zoom="0.72221017"
     inkscape:cx="-162.00271"
     inkscape:cy="73.629557"
     inkscape:window-x="0"
     inkscape:window-y="27"
     inkscape:window-maximized="1"
     inkscape:current-layer="g10" /><g
     id="g10"
     inkscape:groupmode="layer"
     inkscape:label="ink_ext_XXXXXX"
     transform="matrix(1.3333333,0,0,-1.3333333,0,200)"><g
       id="g12"
       transform="matrix(0.1,0,0,0.1,0,11.471502)"><path
         d="m 137.887,447.809 c -8.395,3.586 -21.285,5.371 -38.68,5.371 -17.4023,0 -39.9843,-1.047 -67.7422,-3.141 V 220.16 h 58.8555 c 22.9497,0 39.9767,3.77 51.0817,11.289 10.856,7.27 18.141,19.801 21.84,37.571 3.207,14.558 4.813,38.125 4.813,70.707 v 28.875 c 0,30.718 -3.641,51.816 -10.922,63.289 -4.442,7.039 -10.856,12.343 -19.246,15.918 z M 0,193.691 v 281.52 l 27.7578,2.031 c 27.7656,2.219 49.9102,3.328 66.4453,3.328 16.5349,0 29.7349,-0.644 39.6099,-1.937 9.875,-1.297 18.539,-3.516 26.003,-6.664 7.469,-3.153 13.821,-7.434 19.063,-12.864 5.246,-5.429 9.535,-12.343 12.867,-20.726 6.293,-15.68 9.438,-38.996 9.438,-69.965 v -28.687 c 0,-36.645 -2.715,-64.481 -8.141,-83.477 -6.297,-21.961 -17.59,-37.762 -33.875,-47.379 -16.777,-10.121 -41.395,-15.18 -73.8438,-15.18 H 0"
         style="fill:#2c6fac;fill-opacity:1;fill-rule:nonzero;stroke:none"
         id="path14"
         inkscape:connector-curvature="0" /><path
         d="m 392.855,303.258 h 96.618 l -49.977,148.625 -5.734,-21.102 z M 498.359,276.801 H 384.344 l -26.649,-83.11 h -32.578 l 92.727,283.176 h 43.125 l 99.019,-283.176 h -33.5 l -28.129,83.11"
         style="fill:#2c6fac;fill-opacity:1;fill-rule:nonzero;stroke:none"
         id="path16"
         inkscape:connector-curvature="0" /><path
         d="m 687.996,476.867 h 24.981 l 130.3,-205.808 16.848,-34.989 -4.074,38.875 v 201.922 h 28.687 V 193.691 H 858.27 l -129.375,205.266 -16.286,31.824 4.075,-37.754 V 193.691 h -28.688 v 283.176"
         style="fill:#2c6fac;fill-opacity:1;fill-rule:nonzero;stroke:none"
         id="path18"
         inkscape:connector-curvature="0" /><path
         d="m 1044.02,476.867 h 31.09 V 325.469 c 0,-29.86 1.3,-50.223 3.89,-61.071 2.59,-10.867 5.58,-19.039 8.98,-24.519 3.39,-5.5 7.8,-9.91 13.23,-13.238 10.24,-6.301 24.34,-9.442 42.29,-9.442 17.96,0 31.46,1.539 40.54,4.621 9.07,3.09 16.1,8.641 21.09,16.668 5,8.012 8.36,19.051 10.09,33.121 1.73,14.075 2.59,32.024 2.59,53.86 v 151.398 h 31.1 V 326.586 c 0,-31.711 -1.18,-53.59 -3.52,-65.606 -2.34,-12.039 -5.58,-22.261 -9.72,-30.64 -4.13,-8.391 -9.96,-15.539 -17.48,-21.469 -15.8,-12.582 -39.37,-18.871 -70.71,-18.871 -46.64,0 -76.75,13.309 -90.32,39.969 -7.53,14.929 -11.72,34.672 -12.58,59.226 -0.38,11.223 -0.56,22.883 -0.56,34.977 v 152.695"
         style="fill:#2c6fac;fill-opacity:1;fill-rule:nonzero;stroke:none"
         id="path20"
         inkscape:connector-curvature="0" /><path
         d="m 1506.29,219.98 c 18.13,0 31.09,3.45 38.86,10.36 9.75,8.762 14.62,24.43 14.62,47.012 0,26.156 -9.56,41.461 -28.68,45.898 -5.81,1.359 -12.1,2.043 -18.88,2.043 h -72.92 V 219.98 Z m -25.36,130.473 c 24.8,0 42.01,3.524 51.64,10.551 10.98,7.898 16.47,22.582 16.47,44.055 v 3.886 c 0,16.532 -3.64,28.317 -10.92,35.352 -7.28,6.914 -19.68,10.363 -37.2,10.363 -14.69,0 -27.15,-0.312 -37.39,-0.922 l -24.24,-1.48 V 350.453 Z m 99.76,53.86 c 0,-38 -14.38,-58.915 -43.12,-62.739 v -0.551 c 17.76,-1.367 31.02,-6.425 39.79,-15.183 10.12,-10.363 15.17,-25.391 15.17,-45.07 0,-19.68 -2.24,-34.95 -6.75,-45.809 -4.51,-10.852 -10.77,-19.301 -18.79,-25.352 C 1553.3,199 1531.76,193.691 1502.4,193.691 h -94.58 v 282.254 c 34.18,3.203 62.38,4.813 84.59,4.813 22.21,0 38.49,-1.703 48.86,-5.09 10.36,-3.391 18.44,-8.301 24.24,-14.719 10.12,-11.222 15.18,-30.105 15.18,-56.636"
         style="fill:#2c6fac;fill-opacity:1;fill-rule:nonzero;stroke:none"
         id="path22"
         inkscape:connector-curvature="0" /><path
         d="m 1736.09,476.867 h 160.46 v -27.39 h -129 V 351.75 h 104.02 V 324.547 H 1767.55 V 220.898 h 134 v -27.207 h -165.46 v 283.176"
         style="fill:#2c6fac;fill-opacity:1;fill-rule:nonzero;stroke:none"
         id="path24"
         inkscape:connector-curvature="0" /><path
         d="m 2302.48,216.641 c 20.12,0 40.36,3.89 60.71,11.66 l 8.15,-25.539 c -9.38,-4.692 -20.67,-7.992 -33.87,-9.903 -13.21,-1.91 -24.86,-2.859 -34.99,-2.859 h -2.59 c -43.92,0 -73.35,12.578 -88.28,37.75 -9.14,15.301 -14.68,35.91 -16.66,61.816 -0.86,12.457 -1.3,26.098 -1.3,40.907 0,14.8 0.41,28.894 1.2,42.285 0.81,13.387 2.44,25.668 4.92,36.832 2.46,11.172 6.04,21.129 10.72,29.898 4.7,8.758 10.99,16.157 18.89,22.207 16.04,12.582 39.36,18.875 69.96,18.875 19.74,0 35.63,-1.265 47.66,-3.793 12.02,-2.531 20.14,-4.593 24.34,-6.199 L 2363,441.332 c -24.05,8.395 -44.63,12.594 -61.72,12.594 -17.09,0 -30.23,-2.074 -39.43,-6.211 -9.19,-4.133 -16.37,-10.942 -21.55,-20.445 -9.02,-16.293 -13.52,-47.321 -13.52,-93.098 v -13.699 c 0,-37.629 4.88,-63.914 14.63,-78.844 10.85,-16.66 30.65,-24.988 59.41,-24.988 h 1.66"
         style="fill:#2c6fac;fill-opacity:1;fill-rule:nonzero;stroke:none"
         id="path26"
         inkscape:connector-curvature="0" /><path
         d="m 2500.07,476.867 h 31.47 V 220.898 h 112.16 v -27.207 h -143.63 v 283.176"
         style="fill:#2c6fac;fill-opacity:1;fill-rule:nonzero;stroke:none"
         id="path28"
         inkscape:connector-curvature="0" /><path
         d="m 2870.17,216.641 c 13.57,0 24.83,1.48 33.78,4.449 8.94,2.961 16.01,8.14 21.19,15.539 9.62,13.699 14.44,39.984 14.44,78.848 v 19.992 c 0,18.625 -0.5,35.226 -1.48,49.785 -1,14.562 -3.65,26.844 -7.96,36.832 -8.88,20.727 -28.14,31.094 -57.75,31.094 h -15.54 c -30.12,0 -49.36,-9.692 -57.75,-29.063 -5.31,-12.332 -8.21,-26.89 -8.7,-43.672 -0.5,-16.789 -0.74,-31.773 -0.74,-44.976 v -19.992 c 0,-36.399 5.43,-62.067 16.28,-76.989 10.49,-14.558 28.2,-21.847 53.13,-21.847 z M 2859.07,190 c -43.94,0 -72.93,13.809 -87,41.449 -8.27,16.039 -13.14,37.442 -14.62,64.223 -0.61,12.594 -0.92,26.281 -0.92,41.094 0,14.808 0.43,28.839 1.29,42.105 0.86,13.266 2.56,25.266 5.09,35.992 2.53,10.739 6.11,20.211 10.74,28.418 4.62,8.196 10.71,15.078 18.23,20.633 15.54,11.109 37.94,16.656 67.19,16.656 h 11.47 c 45.77,0 75.08,-12.336 87.91,-37.007 8.02,-15.434 12.53,-36.907 13.52,-64.411 0.48,-13.453 0.73,-27.672 0.73,-42.668 0,-14.996 -0.36,-28.808 -1.11,-41.453 -0.73,-12.656 -2.28,-24.343 -4.62,-35.082 -2.35,-10.738 -5.77,-20.418 -10.27,-29.058 -4.51,-8.629 -10.58,-15.981 -18.24,-22.02 C 2922.67,196.289 2900.03,190 2870.54,190 h -11.47"
         style="fill:#2c6fac;fill-opacity:1;fill-rule:nonzero;stroke:none"
         id="path30"
         inkscape:connector-curvature="0" /><path
         d="m 3121.63,476.867 h 31.09 V 325.469 c 0,-29.86 1.29,-50.223 3.88,-61.071 2.6,-10.867 5.59,-19.039 8.98,-24.519 3.4,-5.5 7.8,-9.91 13.23,-13.238 10.24,-6.301 24.35,-9.442 42.3,-9.442 17.95,0 31.46,1.539 40.53,4.621 9.07,3.09 16.1,8.641 21.1,16.668 4.99,8.012 8.36,19.051 10.09,33.121 1.72,14.075 2.59,32.024 2.59,53.86 v 151.398 h 31.1 V 326.586 c 0,-31.711 -1.18,-53.59 -3.52,-65.606 -2.35,-12.039 -5.58,-22.261 -9.72,-30.64 -4.13,-8.391 -9.97,-15.539 -17.49,-21.469 -15.8,-12.582 -39.36,-18.871 -70.7,-18.871 -46.64,0 -76.76,13.309 -90.32,39.969 -7.54,14.929 -11.72,34.672 -12.59,59.226 -0.37,11.223 -0.55,22.883 -0.55,34.977 v 152.695"
         style="fill:#2c6fac;fill-opacity:1;fill-rule:nonzero;stroke:none"
         id="path32"
         inkscape:connector-curvature="0" /><path
         d="m 3623.32,447.809 c -8.4,3.586 -21.29,5.371 -38.69,5.371 -17.4,0 -39.97,-1.047 -67.74,-3.141 V 220.16 h 58.86 c 22.95,0 39.98,3.77 51.08,11.289 10.86,7.27 18.14,19.801 21.85,37.571 3.2,14.558 4.81,38.125 4.81,70.707 v 28.875 c 0,30.718 -3.64,51.816 -10.93,63.289 -4.43,7.039 -10.86,12.343 -19.24,15.918 z M 3485.43,193.691 v 281.52 l 27.76,2.031 c 27.76,2.219 49.9,3.328 66.45,3.328 16.52,0 29.73,-0.644 39.6,-1.937 9.87,-1.297 18.55,-3.516 26.01,-6.664 7.46,-3.153 13.81,-7.434 19.07,-12.864 5.24,-5.429 9.52,-12.343 12.86,-20.726 6.29,-15.68 9.44,-38.996 9.44,-69.965 v -28.687 c 0,-36.645 -2.72,-64.481 -8.15,-83.477 -6.29,-21.961 -17.58,-37.762 -33.87,-47.379 -16.78,-10.121 -41.4,-15.18 -73.85,-15.18 h -85.32"
         style="fill:#2c6fac;fill-opacity:1;fill-rule:nonzero;stroke:none"
         id="path34"
         inkscape:connector-curvature="0" /><path
         d="m 958.48,117.75 c -3.832,1.641 -9.718,2.449 -17.667,2.449 -7.942,0 -18.258,-0.48 -30.938,-1.429 V 13.7813 h 26.883 c 10.484,0 18.258,1.707 23.328,5.1484 4.961,3.332 8.285,9.0391 9.977,17.1601 1.464,6.6485 2.195,17.4219 2.195,32.3008 v 13.1797 c 0,14.0313 -1.664,23.6677 -4.985,28.9097 -2.027,3.219 -4.96,5.629 -8.793,7.27 z M 895.504,1.69141 V 130.27 l 12.68,0.921 c 12.679,1.008 22.796,1.52 30.347,1.52 7.555,0 13.582,-0.301 18.094,-0.891 4.504,-0.59 8.465,-1.601 11.875,-3.039 3.406,-1.441 6.309,-3.402 8.703,-5.883 2.395,-2.468 4.356,-5.628 5.875,-9.457 2.875,-7.16 4.313,-17.8004 4.313,-31.9605 V 68.3906 c 0,-16.75 -1.239,-29.4609 -3.715,-38.1289 C 980.797,20.2305 975.645,13.0117 968.203,8.62109 960.539,4 949.293,1.69141 934.473,1.69141 h -38.969"
         style="fill:#65696d;fill-opacity:1;fill-rule:nonzero;stroke:none"
         id="path36"
         inkscape:connector-curvature="0" /><path
         d="m 1086.89,47.3281 c -13.19,3.3321 -25.36,4.9922 -36.52,4.9922 -6.88,0 -11.44,-1.9687 -13.69,-5.9101 -1.53,-2.7696 -2.29,-6.8516 -2.29,-12.2618 0,-5.4101 0.3,-9.3281 0.89,-11.75 0.59,-2.4296 1.57,-4.4296 2.91,-6.0078 2.65,-2.9804 7.02,-4.4804 13.11,-4.4804 9.52,0 18.96,2.4609 28.31,7.3711 2.88,1.457 5.47,3.0898 7.79,4.8906 -0.35,6.0898 -0.51,13.8086 -0.51,23.1562 z m 14.2,-9.9687 c 0,-11.211 0.53,-22.8711 1.6,-34.98831 l -12.51,-1.01953 -2.11,11.75004 C 1080.91,7.35156 1071.44,3.35156 1059.67,1.10156 1055.84,0.359375 1052.42,0 1049.44,0 c -2.99,0 -5.62,0.140625 -7.9,0.421875 -2.29,0.289063 -4.49,0.839845 -6.6,1.636715 -2.11,0.82032 -4.07,1.96094 -5.87,3.44141 -1.81,1.46094 -3.38,3.39844 -4.74,5.8203 -2.87,5.1406 -4.31,11.2891 -4.31,18.4805 0,7.1797 0.52,12.7578 1.56,16.7305 1.05,3.9687 2.78,7.2773 5.2,9.9375 4.79,5.2304 12.86,7.8515 24.18,7.8515 11.33,0 23.41,-2.1289 36.26,-6.4101 v 10.9804 c 0,12.2305 -5.04,19.4688 -15.13,21.7305 -3.26,0.7187 -7.01,1.0977 -11.24,1.0977 -9.63,0 -19.64,-1.918 -30.01,-5.7579 l -3.13,12.168 c 2.88,1.9221 10.2,3.6411 21.98,5.1721 3.72,0.437 8.19,0.668 13.4,0.668 5.21,0 10.32,-0.617 15.34,-1.848 5.02,-1.25 9.19,-3.2812 12.51,-6.0897 6.77,-5.5899 10.15,-14.6329 10.15,-27.1407 V 37.3594"
         style="fill:#65696d;fill-opacity:1;fill-rule:nonzero;stroke:none"
         id="path38"
         inkscape:connector-curvature="0" /><path
         d="M 1188.91,6.5 C 1179.73,2.17188 1171.25,0 1163.47,0 c -14.09,0 -22.09,6.03125 -24.01,18.0781 -0.45,2.8907 -0.68,7.0508 -0.68,12.5235 v 59.9375 h -12.17 v 10.3829 l 12.17,1.359 2.2,23 h 11.75 v -23 h 29.34 V 90.5391 h -29.34 V 30.8594 c 0,-6.9375 0.51,-11.3711 1.52,-13.2696 1.86,-3.5117 5.58,-5.25 11.16,-5.25 5.58,0 11.81,1.7188 18.68,5.1485 L 1188.91,6.5"
         style="fill:#65696d;fill-opacity:1;fill-rule:nonzero;stroke:none"
         id="path40"
         inkscape:connector-curvature="0" /><path
         d="m 1274.38,47.3281 c -13.19,3.3321 -25.36,4.9922 -36.52,4.9922 -6.88,0 -11.44,-1.9687 -13.69,-5.9101 -1.53,-2.7696 -2.29,-6.8516 -2.29,-12.2618 0,-5.4101 0.3,-9.3281 0.89,-11.75 0.59,-2.4296 1.57,-4.4296 2.91,-6.0078 2.65,-2.9804 7.02,-4.4804 13.11,-4.4804 9.52,0 18.96,2.4609 28.31,7.3711 2.88,1.457 5.47,3.0898 7.79,4.8906 -0.35,6.0898 -0.51,13.8086 -0.51,23.1562 z m 14.2,-9.9687 c 0,-11.211 0.53,-22.8711 1.6,-34.98831 l -12.51,-1.01953 -2.11,11.75004 C 1268.4,7.35156 1258.93,3.35156 1247.16,1.10156 1243.33,0.359375 1239.91,0 1236.93,0 c -2.99,0 -5.62,0.140625 -7.9,0.421875 -2.29,0.289063 -4.49,0.839845 -6.6,1.636715 -2.11,0.82032 -4.07,1.96094 -5.87,3.44141 -1.81,1.46094 -3.38,3.39844 -4.74,5.8203 -2.87,5.1406 -4.31,11.2891 -4.31,18.4805 0,7.1797 0.52,12.7578 1.56,16.7305 1.05,3.9687 2.78,7.2773 5.2,9.9375 4.79,5.2304 12.86,7.8515 24.18,7.8515 11.33,0 23.41,-2.1289 36.26,-6.4101 v 10.9804 c 0,12.2305 -5.04,19.4688 -15.13,21.7305 -3.26,0.7187 -7.01,1.0977 -11.24,1.0977 -9.63,0 -19.64,-1.918 -30.01,-5.7579 l -3.13,12.168 c 2.88,1.9221 10.2,3.6411 21.98,5.1721 3.72,0.437 8.19,0.668 13.4,0.668 5.21,0 10.32,-0.617 15.34,-1.848 5.02,-1.25 9.19,-3.2812 12.51,-6.0897 6.77,-5.5899 10.15,-14.6329 10.15,-27.1407 V 37.3594"
         style="fill:#65696d;fill-opacity:1;fill-rule:nonzero;stroke:none"
         id="path42"
         inkscape:connector-curvature="0" /><path
         d="M 1396.77,6.17188 C 1388.94,2.05078 1378.2,0 1364.57,0 c -8.06,0 -13.98,0.621094 -17.75,1.85938 -9.64,3.26171 -15.95,8.82032 -18.94,16.65232 -2.08,5.4571 -3.3,11.3477 -3.63,17.668 -0.34,6.3086 -0.51,11.6406 -0.51,15.9687 0,4.3516 0.11,8.5899 0.34,12.7227 0.22,4.1484 0.77,8.1289 1.64,11.9687 0.88,3.8204 2.22,7.3907 4.02,10.6915 1.8,3.2968 4.25,6.1875 7.35,8.6679 6.71,5.1798 16.35,7.7698 28.91,7.7698 9.25,0 17.75,-1.348 25.53,-4.0471 2.09,-0.6914 3.67,-1.3321 4.74,-1.9531 l -4.23,-12.5196 c -10.82,4.1797 -19.68,6.2696 -26.58,6.2696 -6.91,0 -11.98,-0.7891 -15.22,-2.3672 -3.24,-1.5821 -5.76,-3.9805 -7.56,-7.1914 -3.05,-5.5196 -4.57,-15.6719 -4.57,-30.4297 0,-5.9102 0.2,-11.3086 0.59,-16.1914 0.39,-4.8672 1.38,-9.0586 2.96,-12.5508 3.32,-7.207 10.19,-10.8164 20.58,-10.8164 10.4,0 20.5,1.8086 30.31,5.4179 l 4.22,-11.41792"
         style="fill:#65696d;fill-opacity:1;fill-rule:nonzero;stroke:none"
         id="path44"
         inkscape:connector-curvature="0" /><path
         d="m 1493.48,58.5 v 8.1094 c 0,8.8515 -1.72,15.1523 -5.16,18.9414 -3.83,4.2187 -10.45,6.3281 -19.86,6.3281 -11.27,0 -18.97,-2.4375 -23.08,-7.3476 -3.95,-4.6719 -5.92,-13.3516 -5.92,-26.0313 z M 1506.75,7.01172 C 1495.08,2.32813 1482.2,0 1468.12,0 c -8.18,0 -15.11,0.839844 -20.8,2.53125 -9.07,2.58984 -15.1,7.94925 -18.09,16.05855 -2.76,7.6094 -4.14,18.879 -4.14,33.8204 v 4.3007 c 0,17.8672 3.72,30.4102 11.16,37.6289 6.71,6.4222 17.89,9.6292 33.56,9.6292 15.27,0 25.7,-3.77 31.27,-11.3284 2.71,-3.6601 4.5,-8.1015 5.37,-13.3125 0.88,-5.207 1.31,-10.1797 1.31,-14.9179 0,-7.3789 -0.16,-13.1016 -0.51,-17.1602 -7.94,-0.3281 -15.07,-0.5117 -21.38,-0.5117 h -13.61 c -14.2,0 -25.14,0.6211 -32.8,1.8711 0,-12.9688 1.63,-22.0078 4.91,-27.1406 3.99,-6.2579 11.97,-9.379 23.92,-9.379 11.94,0 23.39,2.3321 34.32,7.0118 l 4.14,-12.08988"
         style="fill:#65696d;fill-opacity:1;fill-rule:nonzero;stroke:none"
         id="path46"
         inkscape:connector-curvature="0" /><path
         d="m 1590.86,90.7813 c -10.99,0 -22.18,-3.2422 -33.56,-9.7227 V 1.69141 h -14.03 V 102.281 h 12.34 l 1.35,-10.4021 c 6.15,5.0195 13.78,8.6011 22.91,10.7421 3.72,0.899 8.09,1.348 13.1,1.348 5.02,0 9.44,-0.578 13.27,-1.731 3.84,-1.16 6.88,-3.0075 9.13,-5.5388 4.12,-4.5586 6.18,-12.8711 6.18,-24.9297 V 1.69141 h -14.21 V 69.1484 c 0,8.1133 -0.79,13.3399 -2.36,15.6719 -1.58,2.3516 -3.46,3.918 -5.63,4.7383 -2.16,0.8203 -4.99,1.2227 -8.49,1.2227"
         style="fill:#65696d;fill-opacity:1;fill-rule:nonzero;stroke:none"
         id="path48"
         inkscape:connector-curvature="0" /><path
         d="M 1708.11,6.5 C 1698.92,2.17188 1690.44,0 1682.66,0 c -14.09,0 -22.09,6.03125 -24,18.0781 -0.46,2.8907 -0.68,7.0508 -0.68,12.5235 v 59.9375 h -12.17 v 10.3829 l 12.17,1.359 2.2,23 h 11.75 v -23 h 29.33 V 90.5391 h -29.33 V 30.8594 c 0,-6.9375 0.5,-11.3711 1.52,-13.2696 1.86,-3.5117 5.58,-5.25 11.16,-5.25 5.58,0 11.8,1.7188 18.68,5.1485 L 1708.11,6.5"
         style="fill:#65696d;fill-opacity:1;fill-rule:nonzero;stroke:none"
         id="path50"
         inkscape:connector-curvature="0" /><path
         d="m 1796.27,58.5 v 8.1094 c 0,8.8515 -1.72,15.1523 -5.16,18.9414 -3.83,4.2187 -10.45,6.3281 -19.86,6.3281 -11.27,0 -18.96,-2.4375 -23.08,-7.3476 -3.95,-4.6719 -5.92,-13.3516 -5.92,-26.0313 z M 1809.54,7.01172 C 1797.87,2.32813 1785,0 1770.91,0 c -8.17,0 -15.1,0.839844 -20.8,2.53125 -9.07,2.58984 -15.1,7.94925 -18.08,16.05855 -2.77,7.6094 -4.15,18.879 -4.15,33.8204 v 4.3007 c 0,17.8672 3.72,30.4102 11.16,37.6289 6.71,6.4222 17.9,9.6292 33.56,9.6292 15.27,0 25.7,-3.77 31.28,-11.3284 2.7,-3.6601 4.49,-8.1015 5.37,-13.3125 0.87,-5.207 1.3,-10.1797 1.3,-14.9179 0,-7.3789 -0.16,-13.1016 -0.5,-17.1602 -7.95,-0.3281 -15.08,-0.5117 -21.39,-0.5117 h -13.61 c -14.2,0 -25.13,0.6211 -32.8,1.8711 0,-12.9688 1.64,-22.0078 4.91,-27.1406 4,-6.2579 11.97,-9.379 23.92,-9.379 11.95,0 23.39,2.3321 34.32,7.0118 l 4.14,-12.08988"
         style="fill:#65696d;fill-opacity:1;fill-rule:nonzero;stroke:none"
         id="path52"
         inkscape:connector-curvature="0" /><path
         d="m 1882.16,90.0313 c -7.22,0 -14.57,-3.6094 -22.07,-10.8321 V 1.69141 h -14.03 V 102.281 h 12.34 l 1.36,-13.3513 c 2.64,4.1016 5.5,7.3203 8.57,9.6289 3.07,2.3124 5.6,3.7224 7.57,4.2304 2.82,0.789 5.49,1.18 8.03,1.18 2.54,0 5.72,-0.508 9.55,-1.52 l -1.27,-13.4373 c -2.87,0.668 -6.22,1.0196 -10.05,1.0196"
         style="fill:#65696d;fill-opacity:1;fill-rule:nonzero;stroke:none"
         id="path54"
         inkscape:connector-curvature="0" /><path
         d="m 2026.11,24.3516 c -0.28,5.2265 -0.41,13.3203 -0.41,24.2578 l 0.08,37.6094 c -10.14,3.3828 -19.95,5.0703 -29.42,5.0703 -6.88,0 -11.42,-0.5586 -13.61,-1.6875 -2.2,-1.1328 -3.88,-2.5899 -5.03,-4.3907 -1.16,-1.8125 -2.1,-4.289 -2.83,-7.4414 -1.3,-5.9179 -1.95,-15.6679 -1.95,-29.25 v -1.8593 c 0,-12.6797 1.38,-21.4414 4.14,-26.2891 2.99,-5.1328 8.54,-7.6914 16.66,-7.6914 h 1.27 c 7.77,0 16.06,2.4805 24.85,7.4414 2.42,1.3477 4.51,2.6992 6.25,4.0508 z m -0.33,73.4492 v 47.7582 l 14.03,1.363 V 47.9219 c 0,-19.4414 0.54,-34.6328 1.6,-45.55081 l -12.59,-1.01953 -2.03,11.57814 C 2014.9,4.30078 2002.81,0 1990.53,0 c -13.59,0 -22.63,4.98828 -27.14,14.9609 -2.59,5.6289 -4.04,11.5899 -4.35,17.8789 -0.31,6.2813 -0.47,11.8086 -0.47,16.5704 0,4.75 0.04,9.5586 0.13,14.4101 0.09,4.8516 0.43,9.3281 1.05,13.4414 0.63,4.1094 1.6,7.8164 2.92,11.1172 1.33,3.3008 3.23,6.0899 5.71,8.4102 5.12,4.7889 13.59,7.1799 25.4,7.1799 11.81,0 22.47,-2.047 32,-6.1682"
         style="fill:#65696d;fill-opacity:1;fill-rule:nonzero;stroke:none"
         id="path56"
         inkscape:connector-curvature="0" /><path
         d="m 2142.26,58.5 v 8.1094 c 0,8.8515 -1.72,15.1523 -5.16,18.9414 -3.84,4.2187 -10.45,6.3281 -19.87,6.3281 -11.28,0 -18.97,-2.4375 -23.07,-7.3476 -3.94,-4.6719 -5.91,-13.3516 -5.91,-26.0313 z M 2155.53,7.01172 C 2143.86,2.32813 2130.98,0 2116.9,0 c -8.17,0 -15.11,0.839844 -20.8,2.53125 -9.08,2.58984 -15.11,7.94925 -18.1,16.05855 -2.76,7.6094 -4.12,18.879 -4.12,33.8204 v 4.3007 c 0,17.8672 3.71,30.4102 11.15,37.6289 6.7,6.4222 17.9,9.6292 33.55,9.6292 15.28,0 25.69,-3.77 31.29,-11.3284 2.7,-3.6601 4.48,-8.1015 5.35,-13.3125 0.87,-5.207 1.33,-10.1797 1.33,-14.9179 0,-7.3789 -0.19,-13.1016 -0.52,-17.1602 -7.94,-0.3281 -15.07,-0.5117 -21.38,-0.5117 h -13.62 c -14.18,0 -25.13,0.6211 -32.78,1.8711 0,-12.9688 1.63,-22.0078 4.89,-27.1406 4,-6.2579 11.98,-9.379 23.93,-9.379 11.94,0 23.39,2.3321 34.32,7.0118 l 4.14,-12.08988"
         style="fill:#65696d;fill-opacity:1;fill-rule:nonzero;stroke:none"
         id="path58"
         inkscape:connector-curvature="0" /><path
         d="m 2195.09,145.391 13.94,1.179 V 1.69141 h -13.78 l -0.16,143.69959"
         style="fill:#65696d;fill-opacity:1;fill-rule:nonzero;stroke:none"
         id="path60"
         inkscape:connector-curvature="0" /><path
         d="m 2252.99,102.281 h 13.87 V 1.69141 h -13.7 z m 6.85,24.098 c -3.78,0 -6.2,0.531 -7.27,1.59 -1.69,1.761 -2.53,4.16 -2.53,7.242 0,3.07 0.17,5.269 0.55,6.578 0.36,1.332 0.91,2.359 1.65,3.09 1.34,1.359 3.42,2.043 6.21,2.043 2.79,0 4.79,-0.152 6,-0.434 1.21,-0.277 2.21,-0.816 3,-1.609 1.35,-1.34 2.03,-3.559 2.03,-6.629 0,-3.07 -0.16,-5.27 -0.47,-6.602 -0.31,-1.32 -0.83,-2.378 -1.56,-3.168 -1.41,-1.41 -3.94,-2.101 -7.61,-2.101"
         style="fill:#65696d;fill-opacity:1;fill-rule:nonzero;stroke:none"
         id="path62"
         inkscape:connector-curvature="0" /><path
         d="m 2295.6,102.281 h 15.12 l 26.38,-82.0818 2.53,-8.3711 2.37,8.3711 25.19,82.0818 h 15.3 L 2348.5,1.69141 h -18.42 L 2295.6,102.281"
         style="fill:#65696d;fill-opacity:1;fill-rule:nonzero;stroke:none"
         id="path64"
         inkscape:connector-curvature="0" /><path
         d="m 2473.87,58.5 v 8.1094 c 0,8.8515 -1.72,15.1523 -5.16,18.9414 -3.83,4.2187 -10.45,6.3281 -19.87,6.3281 -11.27,0 -18.96,-2.4375 -23.06,-7.3476 -3.95,-4.6719 -5.92,-13.3516 -5.92,-26.0313 z M 2487.14,7.01172 C 2475.48,2.32813 2462.6,0 2448.51,0 c -8.17,0 -15.1,0.839844 -20.8,2.53125 -9.07,2.58984 -15.1,7.94925 -18.09,16.05855 -2.76,7.6094 -4.13,18.879 -4.13,33.8204 v 4.3007 c 0,17.8672 3.72,30.4102 11.15,37.6289 6.71,6.4222 17.9,9.6292 33.56,9.6292 15.28,0 25.7,-3.77 31.28,-11.3284 2.7,-3.6601 4.49,-8.1015 5.36,-13.3125 0.87,-5.207 1.32,-10.1797 1.32,-14.9179 0,-7.3789 -0.18,-13.1016 -0.51,-17.1602 -7.95,-0.3281 -15.07,-0.5117 -21.39,-0.5117 h -13.61 c -14.19,0 -25.13,0.6211 -32.79,1.8711 0,-12.9688 1.63,-22.0078 4.9,-27.1406 4,-6.2579 11.98,-9.379 23.92,-9.379 11.94,0 23.39,2.3321 34.32,7.0118 l 4.14,-12.08988"
         style="fill:#65696d;fill-opacity:1;fill-rule:nonzero;stroke:none"
         id="path66"
         inkscape:connector-curvature="0" /><path
         d="m 2559.76,90.0313 c -7.21,0 -14.58,-3.6094 -22.06,-10.8321 V 1.69141 h -14.04 V 102.281 H 2536 l 1.36,-13.3513 c 2.64,4.1016 5.5,7.3203 8.57,9.6289 3.08,2.3124 5.6,3.7224 7.57,4.2304 2.82,0.789 5.49,1.18 8.03,1.18 2.53,0 5.72,-0.508 9.55,-1.52 l -1.26,-13.4373 c -2.87,0.668 -6.23,1.0196 -10.06,1.0196"
         style="fill:#65696d;fill-opacity:1;fill-rule:nonzero;stroke:none"
         id="path68"
         inkscape:connector-curvature="0" /><path
         d="m 2661.37,58.5 v 8.1094 c 0,8.8515 -1.72,15.1523 -5.16,18.9414 -3.83,4.2187 -10.46,6.3281 -19.87,6.3281 -11.27,0 -18.96,-2.4375 -23.07,-7.3476 -3.95,-4.6719 -5.92,-13.3516 -5.92,-26.0313 z M 2674.64,7.01172 C 2662.98,2.32813 2650.1,0 2636.01,0 c -8.17,0 -15.11,0.839844 -20.8,2.53125 -9.07,2.58984 -15.11,7.94925 -18.09,16.05855 -2.76,7.6094 -4.14,18.879 -4.14,33.8204 v 4.3007 c 0,17.8672 3.72,30.4102 11.16,37.6289 6.71,6.4222 17.89,9.6292 33.56,9.6292 15.27,0 25.69,-3.77 31.28,-11.3284 2.69,-3.6601 4.49,-8.1015 5.36,-13.3125 0.87,-5.207 1.32,-10.1797 1.32,-14.9179 0,-7.3789 -0.18,-13.1016 -0.51,-17.1602 -7.95,-0.3281 -15.08,-0.5117 -21.39,-0.5117 h -13.62 c -14.19,0 -25.13,0.6211 -32.79,1.8711 0,-12.9688 1.64,-22.0078 4.91,-27.1406 4,-6.2579 11.97,-9.379 23.91,-9.379 11.95,0 23.39,2.3321 34.32,7.0118 l 4.15,-12.08988"
         style="fill:#65696d;fill-opacity:1;fill-rule:nonzero;stroke:none"
         id="path70"
         inkscape:connector-curvature="0" /><path
         d="m 2775.81,24.3516 c -0.28,5.2265 -0.42,13.3203 -0.42,24.2578 l 0.09,37.6094 c -10.15,3.3828 -19.95,5.0703 -29.43,5.0703 -6.87,0 -11.4,-0.5586 -13.6,-1.6875 -2.2,-1.1328 -3.88,-2.5899 -5.03,-4.3907 -1.16,-1.8125 -2.1,-4.289 -2.84,-7.4414 -1.29,-5.9179 -1.94,-15.6679 -1.94,-29.25 v -1.8593 c 0,-12.6797 1.38,-21.4414 4.14,-26.2891 2.99,-5.1328 8.54,-7.6914 16.66,-7.6914 h 1.27 c 7.77,0 16.06,2.4805 24.85,7.4414 2.42,1.3477 4.51,2.6992 6.25,4.0508 z m -0.33,73.4492 v 47.7582 l 14.03,1.363 V 47.9219 c 0,-19.4414 0.54,-34.6328 1.6,-45.55081 l -12.59,-1.01953 -2.04,11.57814 C 2764.6,4.30078 2752.51,0 2740.23,0 c -13.58,0 -22.64,4.98828 -27.14,14.9609 -2.59,5.6289 -4.04,11.5899 -4.35,17.8789 -0.31,6.2813 -0.47,11.8086 -0.47,16.5704 0,4.75 0.04,9.5586 0.13,14.4101 0.08,4.8516 0.43,9.3281 1.06,13.4414 0.62,4.1094 1.59,7.8164 2.91,11.1172 1.33,3.3008 3.22,6.0899 5.71,8.4102 5.12,4.7889 13.59,7.1799 25.4,7.1799 11.8,0 22.47,-2.047 32,-6.1682"
         style="fill:#65696d;fill-opacity:1;fill-rule:nonzero;stroke:none"
         id="path72"
         inkscape:connector-curvature="0" /><path
         d="m 1843.31,1241.48 c -140.26,0 -254.37,-114.11 -254.37,-254.378 0,-140.258 114.11,-254.368 254.37,-254.368 140.26,0 254.37,114.11 254.37,254.368 0,140.268 -114.11,254.378 -254.37,254.378 z m 0,-537.839 c -156.3,0 -283.47,127.16 -283.47,283.461 0,156.308 127.17,283.468 283.47,283.468 156.3,0 283.46,-127.16 283.46,-283.468 0,-156.301 -127.16,-283.461 -283.46,-283.461"
         style="fill:#2c6fac;fill-opacity:1;fill-rule:nonzero;stroke:none"
         id="path74"
         inkscape:connector-curvature="0" /><path
         d="m 1890.22,1091.59 h 105.96 l 12.08,25.07 h -146.83 l -12.08,-106.74 28.79,5.02 12.08,76.65"
         style="fill:#2c6fac;fill-opacity:1;fill-rule:nonzero;stroke:none"
         id="path76"
         inkscape:connector-curvature="0" /><path
         d="m 1890.22,882.441 -12.08,87.368 -28.79,-5.02 12.08,-107.242 h 151.4 l -12.08,24.894 h -110.53"
         style="fill:#2c6fac;fill-opacity:1;fill-rule:nonzero;stroke:none"
         id="path78"
         inkscape:connector-curvature="0" /><path
         d="m 1837.27,1116.66 h -163.48 l 12.08,-24.89 h 122.61 l -12.08,-91.08 28.79,5.02 12.08,110.95"
         style="fill:#2c6fac;fill-opacity:1;fill-rule:nonzero;stroke:none"
         id="path80"
         inkscape:connector-curvature="0" /><path
         d="m 1808.48,882.613 h -118.04 l -12.08,-25.066 h 158.91 l -12.08,103.031 -28.79,-5.023 12.08,-72.942"
         style="fill:#2c6fac;fill-opacity:1;fill-rule:nonzero;stroke:none"
         id="path82"
         inkscape:connector-curvature="0" /></g></g></svg>