<?xml version="1.0" encoding="UTF-8" standalone="no"?>
<!-- Created with Inkscape (http://www.inkscape.org/) -->

<svg
   xmlns:dc="http://purl.org/dc/elements/1.1/"
   xmlns:cc="http://creativecommons.org/ns#"
   xmlns:rdf="http://www.w3.org/1999/02/22-rdf-syntax-ns#"
   xmlns:svg="http://www.w3.org/2000/svg"
   xmlns="http://www.w3.org/2000/svg"
   xmlns:sodipodi="http://sodipodi.sourceforge.net/DTD/sodipodi-0.dtd"
   xmlns:inkscape="http://www.inkscape.org/namespaces/inkscape"
   version="1.1"
   id="svg2"
   xml:space="preserve"
   width="230"
   height="87"
   viewBox="0 0 230 87"
   sodipodi:docname="LOGO_exp_yellowBg.svg"
   inkscape:version="0.92pre3 r"
   inkscape:export-filename="/home/ricco/Downloads/LOGO_exp_yellowBg.svg.png"
   inkscape:export-xdpi="96"
   inkscape:export-ydpi="96"><metadata
     id="metadata8"><rdf:RDF><cc:Work
         rdf:about=""><dc:format>image/svg+xml</dc:format><dc:type
           rdf:resource="http://purl.org/dc/dcmitype/StillImage" /><dc:title></dc:title></cc:Work></rdf:RDF></metadata><defs
     id="defs6"><clipPath
       clipPathUnits="userSpaceOnUse"
       id="clipPath20"><path
         d="M 0,450 H 1912 V 0 H 0 Z"
         id="path18"
         inkscape:connector-curvature="0" /></clipPath></defs><sodipodi:namedview
     pagecolor="#ffffff"
     bordercolor="#666666"
     borderopacity="1"
     objecttolerance="10"
     gridtolerance="10"
     guidetolerance="10"
     inkscape:pageopacity="0"
     inkscape:pageshadow="2"
     inkscape:window-width="1920"
     inkscape:window-height="983"
     id="namedview4"
     showgrid="false"
     inkscape:zoom="2.8284271"
     inkscape:cx="93.087966"
     inkscape:cy="21.965206"
     inkscape:window-x="0"
     inkscape:window-y="27"
     inkscape:window-maximized="1"
     inkscape:current-layer="g10" /><g
     id="g10"
     inkscape:groupmode="layer"
     inkscape:label="LOGO_exp_yellowBg"
     transform="matrix(1.3333333,0,0,-1.3333333,0,87)"><g
       id="g43"
       transform="translate(2.15625e-6,12.325576)"><path
         inkscape:connector-curvature="0"
         id="path12"
         style="fill:#ffdc00;fill-opacity:1;fill-rule:nonzero;stroke:none;stroke-width:0.09021967"
         d="M 0,0 H 172.5 V 40.59885 H 0 Z" /><g
         transform="scale(0.09021967)"
         id="g14"><g
           clip-path="url(#clipPath20)"
           id="g16"><g
             transform="translate(955.9825,157.516)"
             id="g22"><path
               inkscape:connector-curvature="0"
               id="path24"
               style="fill:#1c1733;fill-opacity:1;fill-rule:nonzero;stroke:none"
               d="m 0,0 c -37.269,0 -67.481,30.212 -67.481,67.48 0,37.264 30.212,67.476 67.481,67.476 37.268,0 67.48,-30.212 67.48,-67.476 C 67.48,30.212 37.268,0 0,0 m 0,179.943 c -62.111,0 -112.463,-50.352 -112.463,-112.463 0,-62.115 50.352,-112.467 112.463,-112.467 62.111,0 112.463,50.352 112.463,112.467 0,62.111 -50.352,112.463 -112.463,112.463" /></g><g
             transform="translate(1372.1003,112.5396)"
             id="g26"><path
               inkscape:connector-curvature="0"
               id="path28"
               style="fill:#1c1733;fill-opacity:1;fill-rule:nonzero;stroke:none"
               d="M 0,0 V -0.008 H 179.981 V 44.979 H 44.987 v 44.982 h 101.254 v 44.987 H 44.987 v 44.987 h 134.994 v 44.987 H 0 Z" /></g><g
             transform="translate(596.0781,337.4675)"
             id="g30"><path
               inkscape:connector-curvature="0"
               id="path32"
               style="fill:#1c1733;fill-opacity:1;fill-rule:nonzero;stroke:none"
               d="m 0,0 h -56.229 l -56.219,-74.971 -56.201,74.947 -56.246,0.025 84.333,-112.467 -84.333,-112.463 56.246,0.021 56.2,74.953 56.221,-74.974 H 0.001 l -84.335,112.466 z" /></g><g
             transform="translate(1799.5,112.54)"
             id="g34"><path
               inkscape:connector-curvature="0"
               id="path36"
               style="fill:#1c1733;fill-opacity:1;fill-rule:nonzero;stroke:none"
               d="M 0,0 -88.295,224.931 H -136.63 L -224.926,0.001 h 48.332 L -112.463,163.366 -48.331,0 Z" /></g><g
             transform="translate(1282.1296,172.5224)"
             id="g38"><path
               inkscape:connector-curvature="0"
               id="path40"
               style="fill:#1c1733;fill-opacity:1;fill-rule:nonzero;stroke:none"
               d="m 0,0 -123.681,164.938 h -56.263 V -59.984 h 44.987 V 104.984 L -11.26,-59.992 h 33.754 l 22.493,-0.001 V 164.946 H 0 Z" /></g><g
             transform="translate(202.4732,247.4988)"
             id="g42"><path
               inkscape:connector-curvature="0"
               id="path44"
               style="fill:#1c1733;fill-opacity:1;fill-rule:nonzero;stroke:none"
               d="m 0,0 h -44.986 v -89.974 h -44.987 v -44.987 h 224.929 v 44.987 H 0 v 44.987 H 134.956 V 0 H 44.987 v 44.983 h 89.969 V 89.97 H 0 Z" /></g><g
             transform="translate(731.0566,337.4592)"
             id="g46"><path
               inkscape:connector-curvature="0"
               id="path48"
               style="fill:#1c1733;fill-opacity:1;fill-rule:nonzero;stroke:none"
               d="M 0,0 V 0.008 L -101.254,0 v -224.93 h 44.987 V -44.979 H 0 v -0.008 c 24.846,0 44.987,-20.14 44.987,-44.987 0,-24.842 -20.141,-44.982 -44.987,-44.982 h -11.28 l -22.494,-44.987 H 0 c 49.689,0 89.973,40.28 89.973,89.969 C 89.973,-40.28 49.689,0 0,0" /></g></g></g></g></g></svg>