<?xml version="1.0" encoding="UTF-8"?>
<!DOCTYPE svg PUBLIC "-//W3C//DTD SVG 1.1//EN" "http://www.w3.org/Graphics/SVG/1.1/DTD/svg11.dtd">
<!-- Creator: CorelDRAW X6 -->
<svg xmlns="http://www.w3.org/2000/svg" xml:space="preserve" width="105mm" height="30mm" version="1.1" style="shape-rendering:geometricPrecision; text-rendering:geometricPrecision; image-rendering:optimizeQuality; fill-rule:evenodd; clip-rule:evenodd"
viewBox="0 0 10500 3000"
 xmlns:xlink="http://www.w3.org/1999/xlink">
 <defs>
  <style type="text/css">
   <![CDATA[
    .fil2 {fill:#525B60;fill-rule:nonzero}
    .fil0 {fill:#9B9B9C;fill-rule:nonzero}
    .fil1 {fill:#E42D24;fill-rule:nonzero}
   ]]>
  </style>
 </defs>
 <g id="Layer_x0020_1">
  <metadata id="CorelCorpID_0Corel-Layer"/>
  <g id="_1016798400">
   <g>
    <path class="fil0" d="M7511 1290c-32,0 -58,-26 -58,-58 0,-9 0,-17 0,-26 7,-172 79,-333 203,-454 125,-120 289,-187 462,-187 173,0 338,66 462,187 124,120 197,281 203,453 1,32 -24,59 -56,61 -32,1 -59,-24 -61,-56 -6,-142 -65,-275 -168,-374 -103,-99 -238,-154 -381,-154 -143,0 -278,55 -381,154 -103,99 -162,232 -168,374 0,7 0,14 0,22 0,32 -26,58 -58,58z"/>
    <path class="fil1" d="M8118 1898c-143,0 -279,-44 -394,-129 -55,-40 -104,-89 -144,-144 -41,-56 -73,-117 -95,-183 -10,-31 6,-64 37,-74 31,-10 64,6 74,37 36,109 104,202 197,270 95,69 207,106 325,106 118,0 230,-37 325,-106 93,-68 161,-161 197,-270 10,-31 43,-47 74,-37 31,10 47,43 37,74 -22,66 -54,127 -95,183 -40,55 -89,104 -144,144 -115,84 -251,129 -394,129z"/>
    <path class="fil1" d="M8119 1467c-32,0 -58,-26 -58,-58l0 -353c0,-32 26,-58 58,-58 32,0 58,26 58,58l0 353c0,32 -26,58 -58,58z"/>
   </g>
   <g>
    <path class="fil1" d="M9922 1716l0 -1028c0,-34 -28,-63 -62,-63 -36,0 -63,29 -63,63l0 859 -691 -881c-18,-23 -36,-37 -65,-37l-18 0c-34,0 -63,29 -63,63l0 1024c0,34 28,63 62,63 36,0 63,-29 63,-63l0 -881 706 902c20,23 39,39 67,39l7 0c34,0 59,-26 59,-60zm-3306 -62l0 0 0 -398 569 0c33,0 59,-26 59,-59 0,-31 -26,-59 -59,-59l-569 0 0 -389 642 0c33,0 59,-26 59,-59 0,-33 -26,-59 -59,-59l-707 0c-34,0 -63,29 -63,65l0 1008c0,36 29,65 63,65l716 0c33,0 59,-26 59,-59 0,-33 -26,-59 -59,-59l-650 0zm-450 60l0 0 0 -1024c0,-36 -29,-65 -63,-65 -36,0 -65,29 -65,65l0 449 -657 0 0 -449c0,-36 -29,-65 -65,-65 -34,0 -63,29 -63,65l0 1024c0,36 29,65 63,65 36,0 65,-29 65,-65l0 -455 657 0 0 455c0,36 29,65 65,65 34,0 63,-29 63,-65zm-1146 -1021l0 0c0,-33 -28,-60 -60,-60l-790 0c-33,0 -60,28 -60,60 0,33 28,59 60,59l330 0 0 963c0,36 29,65 65,65 36,0 65,-29 65,-65l0 -963 330 0c33,0 60,-26 60,-59zm-1143 1023l0 0 0 -1028c0,-34 -28,-63 -62,-63 -36,0 -63,29 -63,63l0 859 -691 -881c-18,-23 -36,-37 -65,-37l-18 0c-34,0 -63,29 -63,63l0 1024c0,34 28,63 62,63 36,0 63,-29 63,-63l0 -881 706 902c20,23 39,39 67,39l6 0c34,0 59,-26 59,-60zm-1208 2l0 0c0,-10 -3,-21 -8,-32l-462 -1008c-15,-36 -41,-57 -80,-57l-7 0c-41,0 -65,21 -81,57l-462 1010c-7,13 -8,24 -8,34 0,33 26,59 59,59 29,0 50,-16 62,-44l119 -265 624 0 119 262c11,26 33,47 63,47 34,0 62,-28 62,-62zm-1158 -720l0 0 0 -3c0,-224 -169,-361 -426,-361l-363 0c-34,0 -63,29 -63,65l0 1016c0,36 29,65 63,65 36,0 65,-29 65,-65l0 -345 276 0c242,0 447,-127 447,-372z"/>
   </g>
   <g>
    <path class="fil2" d="M6447 2412c-16,-14 -24,-35 -24,-63l0 -176 -41 0 0 -38 41 0 0 -88 43 0 0 88 93 0 0 38 -93 0 0 170c0,32 16,49 49,49 14,0 28,-3 42,-10l0 37c-16,8 -33,12 -52,12 -25,0 -45,-6 -59,-19z"/>
   </g>
   <g>
    <path class="fil2" d="M6654 2298c3,30 14,54 34,72 19,17 42,25 68,25 19,0 36,-4 52,-11 14,-7 27,-17 40,-30l27 24c-16,18 -33,31 -50,40 -21,10 -44,15 -70,15 -41,0 -75,-14 -103,-42 -29,-29 -43,-65 -43,-110 0,-42 13,-78 39,-108 27,-30 61,-45 100,-45 42,0 75,15 100,45 24,29 36,65 36,109l0 7c0,3 0,5 -1,8l-231 0zm188 -35l0 0c-3,-28 -12,-51 -27,-69 -17,-20 -39,-29 -66,-29 -25,0 -46,9 -64,28 -18,18 -28,42 -31,70l188 0z"/>
    <path class="fil2" d="M6987 2388c-29,-29 -43,-65 -43,-106l0 -1c0,-42 14,-77 43,-107 29,-30 64,-45 107,-45 26,0 48,5 69,15 17,8 33,20 48,37l-29 30c-14,-14 -26,-24 -38,-31 -15,-9 -32,-13 -50,-13 -29,0 -54,11 -74,33 -20,22 -30,49 -30,80l0 1c0,32 10,58 31,80 20,22 46,33 76,33 18,0 34,-4 50,-12 14,-7 27,-18 39,-31l28 26c-16,18 -33,32 -50,41 -20,11 -43,16 -69,16 -42,0 -78,-15 -107,-45z"/>
    <path class="fil2" d="M7284 2014l43 0 0 171c11,-17 23,-31 38,-41 18,-11 38,-16 61,-16 35,0 62,11 82,32 20,21 29,49 29,85l0 181 -43 0 0 -170c0,-59 -27,-88 -81,-88 -25,0 -46,8 -63,25 -17,17 -25,39 -25,66l0 167 -43 0 0 -412z"/>
    <path class="fil2" d="M7631 2134l43 0 0 51c11,-17 23,-31 38,-41 18,-11 38,-16 61,-16 35,0 62,11 82,32 20,21 29,49 29,85l0 181 -43 0 0 -170c0,-59 -27,-88 -81,-88 -25,0 -46,8 -63,25 -17,17 -25,39 -25,66l0 167 -43 0 0 -292z"/>
    <path class="fil2" d="M8004 2388c-29,-29 -43,-65 -43,-107l0 -1c0,-42 14,-77 43,-107 29,-30 66,-45 109,-45 43,0 80,15 109,45 29,29 43,65 43,107l0 1c0,42 -15,77 -43,107 -30,30 -66,45 -109,45 -43,0 -79,-15 -108,-45zm187 -28l0 0c20,-21 30,-48 30,-79l0 -1c0,-32 -10,-58 -31,-81 -21,-22 -47,-33 -77,-33 -31,0 -56,11 -77,33 -20,22 -30,48 -30,80l0 1c0,32 10,58 31,80 21,22 46,33 77,33 31,0 57,-11 77,-33z"/>
    <polygon class="fil2" points="8347,2014 8391,2014 8391,2426 8347,2426 "/>
    <path class="fil2" d="M8516 2388c-29,-29 -43,-65 -43,-107l0 -1c0,-42 14,-77 43,-107 29,-30 66,-45 109,-45 43,0 80,15 109,45 29,29 43,65 43,107l0 1c0,42 -15,77 -43,107 -30,30 -66,45 -109,45 -43,0 -79,-15 -108,-45zm187 -28l0 0c20,-21 30,-48 30,-79l0 -1c0,-32 -10,-58 -31,-81 -21,-22 -47,-33 -77,-33 -31,0 -56,11 -77,33 -20,22 -30,48 -30,80l0 1c0,32 10,58 31,80 21,22 46,33 77,33 31,0 57,-11 77,-33z"/>
    <path class="fil2" d="M8853 2477l20 -34c34,25 72,37 112,37 71,0 106,-35 106,-104l0 -34c-14,19 -30,33 -47,43 -20,12 -43,18 -68,18 -37,0 -68,-12 -95,-37 -28,-26 -42,-60 -42,-100l0 -1c0,-41 14,-75 42,-101 27,-24 58,-37 95,-37 26,0 49,6 69,18 17,10 32,24 45,41l0 -52 43 0 0 241c0,44 -12,78 -37,103 -26,26 -63,39 -111,39 -49,0 -93,-14 -133,-41zm206 -139l0 0c22,-19 33,-42 33,-71l0 -1c0,-29 -11,-53 -33,-72 -21,-18 -46,-27 -74,-27 -28,0 -52,9 -71,27 -20,18 -30,42 -30,72l0 1c0,29 10,52 30,72 19,18 43,28 70,28 29,0 53,-9 74,-28z"/>
    <path class="fil2" d="M9232 2023l50 0 0 48 -50 0 0 -48zm3 112l0 0 43 0 0 292 -43 0 0 -292z"/>
    <path class="fil2" d="M9405 2298c3,30 14,54 34,72 19,17 42,25 68,25 19,0 36,-4 52,-11 14,-7 27,-17 40,-30l27 24c-16,18 -33,31 -50,40 -21,10 -44,15 -70,15 -41,0 -75,-14 -103,-42 -29,-29 -43,-65 -43,-110 0,-42 13,-78 39,-108 27,-30 61,-45 100,-45 42,0 75,15 100,45 24,29 36,65 36,109l0 7c0,3 0,5 -1,8l-231 0zm188 -35l0 0c-3,-28 -12,-51 -27,-69 -17,-20 -39,-29 -66,-29 -25,0 -46,9 -64,28 -18,18 -28,42 -31,70l188 0z"/>
    <path class="fil2" d="M9688 2389l22 -31c33,25 67,37 101,37 40,0 60,-15 60,-46l0 -1c0,-13 -7,-24 -22,-33 -6,-3 -14,-7 -23,-10 -7,-2 -16,-5 -28,-8 -15,-4 -26,-8 -34,-11 -12,-5 -23,-10 -31,-15 -21,-14 -31,-33 -31,-56l0 -1c0,-25 9,-45 28,-60 18,-15 42,-23 71,-23 38,0 73,11 105,32l-20 33c-29,-19 -58,-28 -86,-28 -38,0 -56,14 -56,42l0 1c0,12 8,23 23,31 6,3 14,7 24,10l28 9c14,4 25,8 34,11 12,5 22,10 30,16 20,14 30,33 30,56l0 1c0,27 -10,49 -30,64 -19,15 -44,23 -74,23 -45,0 -85,-14 -121,-43z"/>
   </g>
  </g>
 </g>
</svg>
