<?xml version="1.0" encoding="UTF-8" standalone="no"?>
<!-- Created with Inkscape (http://www.inkscape.org/) -->

<svg
   xmlns:dc="http://purl.org/dc/elements/1.1/"
   xmlns:cc="http://creativecommons.org/ns#"
   xmlns:rdf="http://www.w3.org/1999/02/22-rdf-syntax-ns#"
   xmlns:svg="http://www.w3.org/2000/svg"
   xmlns="http://www.w3.org/2000/svg"
   xmlns:sodipodi="http://sodipodi.sourceforge.net/DTD/sodipodi-0.dtd"
   xmlns:inkscape="http://www.inkscape.org/namespaces/inkscape"
   version="1.1"
   id="svg2"
   xml:space="preserve"
   width="377.94666"
   height="188.97333"
   viewBox="0 0 377.94666 188.97333"
   sodipodi:docname="vacuumlabs_logo_na_bielom_sirka.svg"
   inkscape:export-filename="/home/ricco/Downloads/loga_vacuumlabs/vacuumlabs_logo_na_bielom_sirka.pdf.png"
   inkscape:export-xdpi="72"
   inkscape:export-ydpi="72"
   inkscape:version="0.92.1 r"><metadata
     id="metadata8"><rdf:RDF><cc:Work
         rdf:about=""><dc:format>image/svg+xml</dc:format><dc:type
           rdf:resource="http://purl.org/dc/dcmitype/StillImage" /><dc:title></dc:title></cc:Work></rdf:RDF></metadata><defs
     id="defs6"><clipPath
       clipPathUnits="userSpaceOnUse"
       id="clipPath18"><path
         d="M 0,141.73 H 283.46 V 0 H 0 Z"
         id="path16"
         inkscape:connector-curvature="0" /></clipPath></defs><sodipodi:namedview
     pagecolor="#ffffff"
     bordercolor="#666666"
     borderopacity="1"
     objecttolerance="10"
     gridtolerance="10"
     guidetolerance="10"
     inkscape:pageopacity="0"
     inkscape:pageshadow="2"
     inkscape:window-width="1920"
     inkscape:window-height="983"
     id="namedview4"
     showgrid="false"
     inkscape:zoom="1.1879983"
     inkscape:cx="103.95637"
     inkscape:cy="91.119656"
     inkscape:window-x="0"
     inkscape:window-y="27"
     inkscape:window-maximized="1"
     inkscape:current-layer="g10" /><g
     id="g10"
     inkscape:groupmode="layer"
     inkscape:label="vacuumlabs_logo_na_bielom_sirka"
     transform="matrix(1.3333333,0,0,-1.3333333,0,188.97333)"><g
       id="g12"><g
         id="g14"
         clip-path="url(#clipPath18)"><g
           id="g20"
           transform="translate(82.6094,96.02)"><path
             d="m 0,0 h -29.738 c -1.363,0 -2.623,-0.44 -3.65,-1.182 -0.002,0 -0.006,-0.004 -0.009,-0.007 -0.073,-0.052 -0.145,-0.108 -0.215,-0.164 -0.016,-0.011 -0.031,-0.022 -0.044,-0.034 -0.058,-0.048 -0.115,-0.097 -0.171,-0.145 -0.024,-0.023 -0.051,-0.041 -0.074,-0.064 -0.044,-0.041 -0.09,-0.082 -0.132,-0.123 -0.032,-0.03 -0.065,-0.059 -0.094,-0.089 -0.039,-0.037 -0.071,-0.075 -0.108,-0.108 -0.035,-0.038 -0.071,-0.079 -0.107,-0.116 -0.033,-0.033 -0.06,-0.071 -0.093,-0.104 -0.035,-0.041 -0.071,-0.078 -0.104,-0.123 -0.038,-0.041 -0.071,-0.09 -0.106,-0.134 -0.027,-0.03 -0.052,-0.064 -0.076,-0.097 -0.052,-0.067 -0.104,-0.138 -0.151,-0.209 -0.008,-0.011 -0.013,-0.019 -0.02,-0.03 -0.552,-0.805 -0.916,-1.748 -1.038,-2.766 0,-0.007 -0.002,-0.014 -0.002,-0.022 -0.009,-0.078 -0.017,-0.153 -0.024,-0.235 -0.002,-0.03 -0.004,-0.06 -0.005,-0.089 -0.005,-0.064 -0.009,-0.119 -0.011,-0.183 0,-0.048 0,-0.097 -0.002,-0.145 0,-0.022 -0.002,-0.049 -0.002,-0.071 h 0.002 c 0,-1.059 0.266,-2.136 0.834,-3.12 l 14.869,-25.753 c 1.722,-2.985 5.539,-4.003 8.52,-2.285 2.983,1.726 4.006,5.538 2.285,8.521 l -4.132,7.156 c -0.492,0.895 -0.775,1.916 -0.775,3.005 0,3.448 2.792,6.24 6.237,6.24 H 0 c 3.445,0 6.239,2.791 6.239,6.236 C 6.239,-2.796 3.445,0 0,0"
             style="fill:#ff0077;fill-opacity:1;fill-rule:nonzero;stroke:none"
             id="path22"
             inkscape:connector-curvature="0" /></g><g
           id="g24"
           transform="translate(89.5576,61.3027)"><path
             d="m 0,0 h -0.228 c -1.164,0 -1.958,0.737 -2.44,1.875 l -4.657,10.76 c -0.114,0.283 -0.227,0.653 -0.227,1.052 0,1.021 0.937,2.016 2.101,2.016 1.164,0 1.788,-0.656 2.1,-1.536 l 3.265,-8.83 3.323,8.89 c 0.284,0.738 0.88,1.476 2.015,1.476 1.136,0 2.074,-0.884 2.074,-2.047 0,-0.368 -0.142,-0.823 -0.228,-1.021 L 2.443,1.875 C 1.959,0.768 1.164,0 0,0"
             style="fill:#242f3c;fill-opacity:1;fill-rule:nonzero;stroke:#ffffff;stroke-width:0.5;stroke-linecap:butt;stroke-linejoin:miter;stroke-miterlimit:10;stroke-dasharray:none;stroke-opacity:1"
             id="path26"
             inkscape:connector-curvature="0" /></g><g
           id="g28"
           transform="translate(107.3052,66.9824)"><path
             d="m 0,0 v 0.768 c -0.739,0.338 -1.704,0.566 -2.754,0.566 -1.846,0 -2.982,-0.737 -2.982,-2.102 v -0.056 c 0,-1.163 0.966,-1.845 2.358,-1.845 C -1.363,-2.669 0,-1.562 0,0 m -9.91,-0.995 v 0.056 c 0,3.325 2.528,4.856 6.133,4.856 1.534,0 2.641,-0.257 3.719,-0.622 v 0.253 c 0,1.79 -1.107,2.785 -3.265,2.785 -1.193,0 -2.156,-0.171 -2.981,-0.429 C -6.56,5.818 -6.73,5.792 -6.929,5.792 c -0.994,0 -1.788,0.769 -1.788,1.76 0,0.768 0.483,1.42 1.163,1.674 1.365,0.514 2.84,0.797 4.857,0.797 2.357,0 4.059,-0.626 5.138,-1.703 C 3.579,7.183 4.087,5.505 4.087,3.463 v -6.926 c 0,-1.166 -0.936,-2.075 -2.101,-2.075 -1.248,0 -2.072,0.883 -2.072,1.788 v 0.029 c -1.05,-1.162 -2.498,-1.929 -4.6,-1.929 -2.868,0 -5.224,1.647 -5.224,4.655"
             style="fill:#242f3c;fill-opacity:1;fill-rule:nonzero;stroke:#ffffff;stroke-width:0.5;stroke-linecap:butt;stroke-linejoin:miter;stroke-miterlimit:10;stroke-dasharray:none;stroke-opacity:1"
             id="path30"
             inkscape:connector-curvature="0" /></g><g
           id="g32"
           transform="translate(113.2397,69.1406)"><path
             d="m 0,0 v 0.056 c 0,4.342 3.323,7.921 7.979,7.921 2.3,0 3.918,-0.626 5.196,-1.704 0.284,-0.227 0.681,-0.738 0.681,-1.476 0,-1.077 -0.88,-1.931 -1.959,-1.931 -0.568,0 -0.994,0.228 -1.25,0.426 C 9.88,3.888 9.086,4.257 7.951,4.257 5.792,4.257 4.259,2.355 4.259,0.111 V 0.056 c 0,-2.33 1.505,-4.202 3.861,-4.202 1.136,0 2.016,0.396 2.84,1.048 0.228,0.172 0.653,0.399 1.165,0.399 1.021,0 1.817,-0.823 1.817,-1.845 0,-0.566 -0.256,-1.021 -0.625,-1.364 C 12.039,-7.07 10.42,-7.864 7.922,-7.864 3.351,-7.864 0,-4.347 0,0"
             style="fill:#242f3c;fill-opacity:1;fill-rule:nonzero;stroke:#ffffff;stroke-width:0.5;stroke-linecap:butt;stroke-linejoin:miter;stroke-miterlimit:10;stroke-dasharray:none;stroke-opacity:1"
             id="path34"
             inkscape:connector-curvature="0" /></g><g
           id="g36"
           transform="translate(142.8828,63.6016)"><path
             d="m 0,0 c 0,-1.192 -0.964,-2.157 -2.157,-2.157 -1.193,0 -2.159,0.965 -2.159,2.157 v 0.171 c -0.993,-1.277 -2.271,-2.441 -4.457,-2.441 -3.265,0 -5.168,2.158 -5.168,5.651 v 7.865 c 0,1.189 0.966,2.158 2.159,2.158 1.193,0 2.157,-0.969 2.157,-2.158 V 4.741 c 0,-2.043 0.965,-3.094 2.613,-3.094 1.646,0 2.696,1.051 2.696,3.094 v 6.505 c 0,1.189 0.966,2.158 2.159,2.158 1.193,0 2.157,-0.969 2.157,-2.158 z"
             style="fill:#242f3c;fill-opacity:1;fill-rule:nonzero;stroke:none"
             id="path38"
             inkscape:connector-curvature="0" /></g><g
           id="g40"
           transform="translate(142.8828,63.6016)"><path
             d="m 0,0 c 0,-1.192 -0.964,-2.157 -2.157,-2.157 -1.193,0 -2.159,0.965 -2.159,2.157 v 0.171 c -0.993,-1.277 -2.271,-2.441 -4.457,-2.441 -3.265,0 -5.168,2.158 -5.168,5.651 v 7.865 c 0,1.189 0.966,2.158 2.159,2.158 1.193,0 2.157,-0.969 2.157,-2.158 V 4.741 c 0,-2.043 0.965,-3.094 2.613,-3.094 1.646,0 2.696,1.051 2.696,3.094 v 6.505 c 0,1.189 0.966,2.158 2.159,2.158 1.193,0 2.157,-0.969 2.157,-2.158 z"
             style="fill:none;stroke:#ffffff;stroke-width:0.5;stroke-linecap:butt;stroke-linejoin:miter;stroke-miterlimit:10;stroke-dasharray:none;stroke-opacity:1"
             id="path42"
             inkscape:connector-curvature="0" /></g><g
           id="g44"
           transform="translate(159.4365,63.6016)"><path
             d="m 0,0 c 0,-1.192 -0.965,-2.157 -2.158,-2.157 -1.193,0 -2.156,0.965 -2.156,2.157 v 0.171 c -0.994,-1.277 -2.274,-2.441 -4.458,-2.441 -3.266,0 -5.168,2.158 -5.168,5.651 v 7.865 c 0,1.189 0.964,2.158 2.158,2.158 1.192,0 2.156,-0.969 2.156,-2.158 V 4.741 c 0,-2.043 0.966,-3.094 2.613,-3.094 1.648,0 2.699,1.051 2.699,3.094 v 6.505 c 0,1.189 0.963,2.158 2.156,2.158 1.193,0 2.158,-0.969 2.158,-2.158 z"
             style="fill:#242f3c;fill-opacity:1;fill-rule:nonzero;stroke:none"
             id="path46"
             inkscape:connector-curvature="0" /></g><g
           id="g48"
           transform="translate(159.4365,63.6016)"><path
             d="m 0,0 c 0,-1.192 -0.965,-2.157 -2.158,-2.157 -1.193,0 -2.156,0.965 -2.156,2.157 v 0.171 c -0.994,-1.277 -2.274,-2.441 -4.458,-2.441 -3.266,0 -5.168,2.158 -5.168,5.651 v 7.865 c 0,1.189 0.964,2.158 2.158,2.158 1.192,0 2.156,-0.969 2.156,-2.158 V 4.741 c 0,-2.043 0.966,-3.094 2.613,-3.094 1.648,0 2.699,1.051 2.699,3.094 v 6.505 c 0,1.189 0.963,2.158 2.156,2.158 1.193,0 2.158,-0.969 2.158,-2.158 z"
             style="fill:none;stroke:#ffffff;stroke-width:0.5;stroke-linecap:butt;stroke-linejoin:miter;stroke-miterlimit:10;stroke-dasharray:none;stroke-opacity:1"
             id="path50"
             inkscape:connector-curvature="0" /></g><g
           id="g52"
           transform="translate(162.1641,74.8472)"><path
             d="M 0,0 C 0,1.193 0.965,2.159 2.158,2.159 3.351,2.159 4.314,1.193 4.314,0 v -0.171 c 0.996,1.278 2.3,2.442 4.488,2.442 1.987,0 3.493,-0.88 4.289,-2.413 1.334,1.562 2.924,2.413 4.997,2.413 3.207,0 5.138,-1.932 5.138,-5.596 v -7.921 c 0,-1.188 -0.965,-2.157 -2.159,-2.157 -1.192,0 -2.156,0.969 -2.156,2.157 v 6.501 c 0,2.046 -0.911,3.098 -2.529,3.098 -1.617,0 -2.611,-1.052 -2.611,-3.098 v -6.501 c 0,-1.188 -0.965,-2.157 -2.159,-2.157 -1.192,0 -2.158,0.969 -2.158,2.157 v 6.501 c 0,2.046 -0.907,3.098 -2.527,3.098 -1.617,0 -2.613,-1.052 -2.613,-3.098 v -6.501 c 0,-1.188 -0.963,-2.157 -2.156,-2.157 -1.193,0 -2.158,0.969 -2.158,2.157 z"
             style="fill:#242f3c;fill-opacity:1;fill-rule:nonzero;stroke:none"
             id="path54"
             inkscape:connector-curvature="0" /></g><g
           id="g56"
           transform="translate(162.1641,74.8472)"><path
             d="M 0,0 C 0,1.193 0.965,2.159 2.158,2.159 3.351,2.159 4.314,1.193 4.314,0 v -0.171 c 0.996,1.278 2.3,2.442 4.488,2.442 1.987,0 3.493,-0.88 4.289,-2.413 1.334,1.562 2.924,2.413 4.997,2.413 3.207,0 5.138,-1.932 5.138,-5.596 v -7.921 c 0,-1.188 -0.965,-2.157 -2.159,-2.157 -1.192,0 -2.156,0.969 -2.156,2.157 v 6.501 c 0,2.046 -0.911,3.098 -2.529,3.098 -1.617,0 -2.611,-1.052 -2.611,-3.098 v -6.501 c 0,-1.188 -0.965,-2.157 -2.159,-2.157 -1.192,0 -2.158,0.969 -2.158,2.157 v 6.501 c 0,2.046 -0.907,3.098 -2.527,3.098 -1.617,0 -2.613,-1.052 -2.613,-3.098 v -6.501 c 0,-1.188 -0.963,-2.157 -2.156,-2.157 -1.193,0 -2.158,0.969 -2.158,2.157 z"
             style="fill:none;stroke:#ffffff;stroke-width:0.5;stroke-linecap:butt;stroke-linejoin:miter;stroke-miterlimit:10;stroke-dasharray:none;stroke-opacity:1"
             id="path58"
             inkscape:connector-curvature="0" /></g><g
           id="g60"
           transform="translate(188.9121,81.7471)"><path
             d="m 0,0 c 0,0.395 0.283,0.708 0.681,0.708 0.397,0 0.71,-0.313 0.71,-0.708 v -19.535 c 0,-0.425 -0.284,-0.712 -0.68,-0.712 -0.398,0 -0.711,0.287 -0.711,0.712 z"
             style="fill:#242f3c;fill-opacity:1;fill-rule:nonzero;stroke:none"
             id="path62"
             inkscape:connector-curvature="0" /></g><g
           id="g64"
           transform="translate(188.9121,81.7471)"><path
             d="m 0,0 c 0,0.395 0.283,0.708 0.681,0.708 0.397,0 0.71,-0.313 0.71,-0.708 v -19.535 c 0,-0.425 -0.284,-0.712 -0.68,-0.712 -0.398,0 -0.711,0.287 -0.711,0.712 z"
             style="fill:none;stroke:#ffffff;stroke-width:0.5;stroke-linecap:butt;stroke-linejoin:miter;stroke-miterlimit:10;stroke-dasharray:none;stroke-opacity:1"
             id="path66"
             inkscape:connector-curvature="0" /></g><g
           id="g68"
           transform="translate(204.6133,67.0381)"><path
             d="M 0,0 V 1.647 C -1.221,1.961 -2.839,2.3 -4.911,2.3 c -3.068,0 -4.77,-1.364 -4.77,-3.377 v -0.06 c 0,-2.098 1.987,-3.32 4.203,-3.32 C -2.525,-4.457 0,-2.643 0,0 m -11.159,-1.223 v 0.06 c 0,3.008 2.586,4.712 6.334,4.712 2.014,0 3.406,-0.254 4.797,-0.627 v 0.627 c 0,2.926 -1.787,4.432 -4.77,4.432 -1.59,0 -2.926,-0.399 -4.119,-0.966 C -9.028,6.956 -9.144,6.93 -9.228,6.93 c -0.341,0 -0.652,0.313 -0.652,0.652 0,0.339 0.255,0.566 0.397,0.626 1.476,0.652 2.924,1.077 4.769,1.077 1.961,0 3.521,-0.54 4.574,-1.591 0.963,-0.965 1.474,-2.3 1.474,-4.09 v -8.43 c 0,-0.425 -0.281,-0.708 -0.68,-0.708 -0.397,0 -0.682,0.283 -0.682,0.708 v 1.818 c -0.993,-1.393 -2.783,-2.754 -5.537,-2.754 -2.696,0 -5.594,1.533 -5.594,4.539"
             style="fill:#242f3c;fill-opacity:1;fill-rule:nonzero;stroke:#ffffff;stroke-width:0.5;stroke-linecap:butt;stroke-linejoin:miter;stroke-miterlimit:10;stroke-dasharray:none;stroke-opacity:1"
             id="path70"
             inkscape:connector-curvature="0" /></g><g
           id="g72"
           transform="translate(222.7012,68.7979)"><path
             d="m 0,0 v 0.06 c 0,3.801 -2.642,6.243 -5.68,6.243 -3.009,0 -5.904,-2.524 -5.904,-6.218 V 0.029 c 0,-3.719 2.895,-6.216 5.904,-6.216 C -2.527,-6.187 0,-3.888 0,0 m -12.891,12.949 c 0,0.425 0.285,0.708 0.683,0.708 0.397,0 0.708,-0.283 0.708,-0.708 v -8.89 c 1.249,1.905 3.094,3.579 5.964,3.579 3.491,0 7.042,-2.811 7.042,-7.523 V 0.06 c 0,-4.716 -3.551,-7.581 -7.042,-7.581 -2.898,0 -4.771,1.643 -5.964,3.461 v -2.526 c 0,-0.398 -0.283,-0.712 -0.682,-0.712 -0.397,0 -0.709,0.314 -0.709,0.712 z"
             style="fill:#242f3c;fill-opacity:1;fill-rule:nonzero;stroke:none"
             id="path74"
             inkscape:connector-curvature="0" /></g><g
           id="g76"
           transform="translate(222.7012,68.7979)"><path
             d="m 0,0 v 0.06 c 0,3.801 -2.642,6.243 -5.68,6.243 -3.009,0 -5.904,-2.524 -5.904,-6.218 V 0.029 c 0,-3.719 2.895,-6.216 5.904,-6.216 C -2.527,-6.187 0,-3.888 0,0 m -12.891,12.949 c 0,0.425 0.285,0.708 0.683,0.708 0.397,0 0.708,-0.283 0.708,-0.708 v -8.89 c 1.249,1.905 3.094,3.579 5.964,3.579 3.491,0 7.042,-2.811 7.042,-7.523 V 0.06 c 0,-4.716 -3.551,-7.581 -7.042,-7.581 -2.898,0 -4.771,1.643 -5.964,3.461 v -2.526 c 0,-0.398 -0.283,-0.712 -0.682,-0.712 -0.397,0 -0.709,0.314 -0.709,0.712 z"
             style="fill:none;stroke:#ffffff;stroke-width:0.5;stroke-linecap:butt;stroke-linejoin:miter;stroke-miterlimit:10;stroke-dasharray:none;stroke-opacity:1"
             id="path78"
             inkscape:connector-curvature="0" /></g><g
           id="g80"
           transform="translate(226.4766,63.207)"><path
             d="m 0,0 c -0.113,0.085 -0.255,0.312 -0.255,0.54 0,0.365 0.314,0.678 0.682,0.678 0.17,0 0.342,-0.056 0.455,-0.142 C 2.386,0 3.976,-0.57 5.707,-0.57 7.668,-0.57 9.2,0.51 9.2,2.184 V 2.239 C 9.2,3.943 7.383,4.569 5.368,5.136 3.011,5.818 0.397,6.53 0.397,9.113 v 0.056 c 0,2.33 1.961,4.003 4.772,4.003 1.561,0 3.295,-0.51 4.685,-1.304 0.171,-0.116 0.369,-0.313 0.369,-0.626 0,-0.369 -0.313,-0.679 -0.682,-0.679 -0.17,0 -0.312,0.052 -0.397,0.112 -1.248,0.738 -2.641,1.193 -4.032,1.193 -1.986,0 -3.295,-1.081 -3.295,-2.528 V 9.285 C 1.817,7.663 3.778,7.07 5.851,6.471 8.179,5.818 10.62,4.968 10.62,2.411 V 2.355 c 0,-2.583 -2.214,-4.23 -4.997,-4.23 C 3.664,-1.875 1.479,-1.107 0,0"
             style="fill:#242f3c;fill-opacity:1;fill-rule:nonzero;stroke:#ffffff;stroke-width:0.5;stroke-linecap:butt;stroke-linejoin:miter;stroke-miterlimit:10;stroke-dasharray:none;stroke-opacity:1"
             id="path82"
             inkscape:connector-curvature="0" /></g></g></g></g></svg>